<mxfile host="Electron" agent="Mozilla/5.0 (X11; Linux x86_64) AppleWebKit/537.36 (KHTML, like Gecko) draw.io/24.7.17 Chrome/128.0.6613.36 Electron/32.0.1 Safari/537.36" version="24.7.17">
  <diagram name="Page-1" id="6133507b-19e7-1e82-6fc7-422aa6c4b21f">
    <mxGraphModel dx="1434" dy="835" grid="1" gridSize="10" guides="1" tooltips="1" connect="1" arrows="1" fold="1" page="1" pageScale="1" pageWidth="1100" pageHeight="850" background="none" math="0" shadow="0">
      <root>
        <mxCell id="0" />
        <mxCell id="1" parent="0" />
        <mxCell id="nFYvNYG7X-C4dPKkS3No-17" style="edgeStyle=orthogonalEdgeStyle;rounded=0;orthogonalLoop=1;jettySize=auto;html=1;exitX=0.5;exitY=0;exitDx=0;exitDy=0;entryX=0.5;entryY=1;entryDx=0;entryDy=0;endArrow=open;endFill=0;" parent="1" source="nFYvNYG7X-C4dPKkS3No-11" target="nFYvNYG7X-C4dPKkS3No-16" edge="1">
          <mxGeometry relative="1" as="geometry" />
        </mxCell>
        <mxCell id="nFYvNYG7X-C4dPKkS3No-18" value="player" style="edgeLabel;html=1;align=center;verticalAlign=middle;resizable=0;points=[];" parent="nFYvNYG7X-C4dPKkS3No-17" vertex="1" connectable="0">
          <mxGeometry x="0.1" y="-1" relative="1" as="geometry">
            <mxPoint x="19" y="-22" as="offset" />
          </mxGeometry>
        </mxCell>
        <mxCell id="nFYvNYG7X-C4dPKkS3No-19" value="2...4" style="edgeLabel;html=1;align=center;verticalAlign=middle;resizable=0;points=[];" parent="nFYvNYG7X-C4dPKkS3No-17" vertex="1" connectable="0">
          <mxGeometry x="0.65" y="-1" relative="1" as="geometry">
            <mxPoint x="19" as="offset" />
          </mxGeometry>
        </mxCell>
        <mxCell id="nFYvNYG7X-C4dPKkS3No-21" style="edgeStyle=orthogonalEdgeStyle;rounded=0;orthogonalLoop=1;jettySize=auto;html=1;exitX=1;exitY=0.5;exitDx=0;exitDy=0;entryX=0;entryY=0.5;entryDx=0;entryDy=0;endArrow=open;endFill=0;" parent="1" source="nFYvNYG7X-C4dPKkS3No-11" target="nFYvNYG7X-C4dPKkS3No-20" edge="1">
          <mxGeometry relative="1" as="geometry" />
        </mxCell>
        <mxCell id="nFYvNYG7X-C4dPKkS3No-22" value="pieces" style="edgeLabel;html=1;align=center;verticalAlign=middle;resizable=0;points=[];" parent="nFYvNYG7X-C4dPKkS3No-21" vertex="1" connectable="0">
          <mxGeometry x="-0.15" y="-4" relative="1" as="geometry">
            <mxPoint y="6" as="offset" />
          </mxGeometry>
        </mxCell>
        <mxCell id="nFYvNYG7X-C4dPKkS3No-23" value="8...16" style="edgeLabel;html=1;align=center;verticalAlign=middle;resizable=0;points=[];" parent="nFYvNYG7X-C4dPKkS3No-21" vertex="1" connectable="0">
          <mxGeometry x="0.75" relative="1" as="geometry">
            <mxPoint x="-5" y="10" as="offset" />
          </mxGeometry>
        </mxCell>
        <mxCell id="nFYvNYG7X-C4dPKkS3No-34" style="edgeStyle=orthogonalEdgeStyle;rounded=0;orthogonalLoop=1;jettySize=auto;html=1;exitX=0.25;exitY=0;exitDx=0;exitDy=0;entryX=1;entryY=0.5;entryDx=0;entryDy=0;endArrow=open;endFill=0;" parent="1" source="nFYvNYG7X-C4dPKkS3No-11" target="nFYvNYG7X-C4dPKkS3No-33" edge="1">
          <mxGeometry relative="1" as="geometry" />
        </mxCell>
        <mxCell id="nFYvNYG7X-C4dPKkS3No-35" value="dice" style="edgeLabel;html=1;align=center;verticalAlign=middle;resizable=0;points=[];" parent="nFYvNYG7X-C4dPKkS3No-34" vertex="1" connectable="0">
          <mxGeometry x="0.625" y="-1" relative="1" as="geometry">
            <mxPoint x="20" y="-9" as="offset" />
          </mxGeometry>
        </mxCell>
        <mxCell id="nFYvNYG7X-C4dPKkS3No-36" value="1" style="edgeLabel;html=1;align=center;verticalAlign=middle;resizable=0;points=[];" parent="nFYvNYG7X-C4dPKkS3No-34" vertex="1" connectable="0">
          <mxGeometry x="0.7625" y="-1" relative="1" as="geometry">
            <mxPoint y="-9" as="offset" />
          </mxGeometry>
        </mxCell>
        <mxCell id="nFYvNYG7X-C4dPKkS3No-11" value="Board" style="rounded=0;whiteSpace=wrap;html=1;" parent="1" vertex="1">
          <mxGeometry x="480" y="400" width="120" height="40" as="geometry" />
        </mxCell>
        <mxCell id="nFYvNYG7X-C4dPKkS3No-13" style="edgeStyle=orthogonalEdgeStyle;rounded=0;orthogonalLoop=1;jettySize=auto;html=1;exitX=1;exitY=0.5;exitDx=0;exitDy=0;entryX=0;entryY=0.5;entryDx=0;entryDy=0;endArrow=none;endFill=0;startArrow=open;startFill=0;" parent="1" source="nFYvNYG7X-C4dPKkS3No-12" target="nFYvNYG7X-C4dPKkS3No-11" edge="1">
          <mxGeometry relative="1" as="geometry" />
        </mxCell>
        <mxCell id="nFYvNYG7X-C4dPKkS3No-14" value="cardPile" style="edgeLabel;html=1;align=center;verticalAlign=middle;resizable=0;points=[];" parent="nFYvNYG7X-C4dPKkS3No-13" vertex="1" connectable="0">
          <mxGeometry x="-0.0167" y="2" relative="1" as="geometry">
            <mxPoint x="1" y="12" as="offset" />
          </mxGeometry>
        </mxCell>
        <mxCell id="nFYvNYG7X-C4dPKkS3No-15" value="1" style="edgeLabel;html=1;align=center;verticalAlign=middle;resizable=0;points=[];" parent="nFYvNYG7X-C4dPKkS3No-13" vertex="1" connectable="0">
          <mxGeometry x="0.6333" y="2" relative="1" as="geometry">
            <mxPoint x="-88" y="-8" as="offset" />
          </mxGeometry>
        </mxCell>
        <mxCell id="nFYvNYG7X-C4dPKkS3No-12" value="&amp;lt;&amp;lt;abstract&amp;gt;&amp;gt;&lt;div&gt;Card&lt;/div&gt;" style="rounded=0;whiteSpace=wrap;html=1;" parent="1" vertex="1">
          <mxGeometry x="280" y="400" width="80" height="40" as="geometry" />
        </mxCell>
        <mxCell id="nFYvNYG7X-C4dPKkS3No-24" style="edgeStyle=orthogonalEdgeStyle;rounded=0;orthogonalLoop=1;jettySize=auto;html=1;exitX=1;exitY=0.5;exitDx=0;exitDy=0;entryX=0.5;entryY=0;entryDx=0;entryDy=0;endArrow=open;endFill=0;" parent="1" source="nFYvNYG7X-C4dPKkS3No-16" target="nFYvNYG7X-C4dPKkS3No-20" edge="1">
          <mxGeometry relative="1" as="geometry" />
        </mxCell>
        <mxCell id="nFYvNYG7X-C4dPKkS3No-25" value="ownPieces" style="edgeLabel;html=1;align=center;verticalAlign=middle;resizable=0;points=[];" parent="nFYvNYG7X-C4dPKkS3No-24" vertex="1" connectable="0">
          <mxGeometry x="-0.3857" relative="1" as="geometry">
            <mxPoint x="4" y="10" as="offset" />
          </mxGeometry>
        </mxCell>
        <mxCell id="nFYvNYG7X-C4dPKkS3No-26" value="4" style="edgeLabel;html=1;align=center;verticalAlign=middle;resizable=0;points=[];" parent="nFYvNYG7X-C4dPKkS3No-24" vertex="1" connectable="0">
          <mxGeometry x="0.8429" y="3" relative="1" as="geometry">
            <mxPoint x="7" y="2" as="offset" />
          </mxGeometry>
        </mxCell>
        <mxCell id="nFYvNYG7X-C4dPKkS3No-67" style="edgeStyle=orthogonalEdgeStyle;rounded=0;orthogonalLoop=1;jettySize=auto;html=1;exitX=0.5;exitY=0;exitDx=0;exitDy=0;entryX=0.5;entryY=0;entryDx=0;entryDy=0;endArrow=open;endFill=0;" parent="1" source="nFYvNYG7X-C4dPKkS3No-16" target="nFYvNYG7X-C4dPKkS3No-12" edge="1">
          <mxGeometry relative="1" as="geometry">
            <Array as="points">
              <mxPoint x="540" y="160" />
              <mxPoint x="320" y="160" />
            </Array>
          </mxGeometry>
        </mxCell>
        <mxCell id="nFYvNYG7X-C4dPKkS3No-68" value="handCards" style="edgeLabel;html=1;align=center;verticalAlign=middle;resizable=0;points=[];" parent="nFYvNYG7X-C4dPKkS3No-67" vertex="1" connectable="0">
          <mxGeometry x="0.1722" relative="1" as="geometry">
            <mxPoint as="offset" />
          </mxGeometry>
        </mxCell>
        <mxCell id="nFYvNYG7X-C4dPKkS3No-69" value="*" style="edgeLabel;html=1;align=center;verticalAlign=middle;resizable=0;points=[];" parent="nFYvNYG7X-C4dPKkS3No-67" vertex="1" connectable="0">
          <mxGeometry x="0.8611" y="1" relative="1" as="geometry">
            <mxPoint x="9" y="5" as="offset" />
          </mxGeometry>
        </mxCell>
        <mxCell id="nFYvNYG7X-C4dPKkS3No-16" value="Player" style="rounded=0;whiteSpace=wrap;html=1;" parent="1" vertex="1">
          <mxGeometry x="480" y="200" width="120" height="40" as="geometry" />
        </mxCell>
        <mxCell id="nFYvNYG7X-C4dPKkS3No-20" value="Pieces" style="rounded=0;whiteSpace=wrap;html=1;" parent="1" vertex="1">
          <mxGeometry x="720" y="400" width="120" height="40" as="geometry" />
        </mxCell>
        <mxCell id="nFYvNYG7X-C4dPKkS3No-31" style="edgeStyle=orthogonalEdgeStyle;rounded=0;orthogonalLoop=1;jettySize=auto;html=1;exitX=0.5;exitY=0;exitDx=0;exitDy=0;endArrow=block;endFill=0;" parent="1" source="nFYvNYG7X-C4dPKkS3No-27" edge="1">
          <mxGeometry relative="1" as="geometry">
            <mxPoint x="320" y="440" as="targetPoint" />
          </mxGeometry>
        </mxCell>
        <mxCell id="nFYvNYG7X-C4dPKkS3No-27" value="SwapCard" style="rounded=0;whiteSpace=wrap;html=1;" parent="1" vertex="1">
          <mxGeometry x="160" y="520" width="80" height="40" as="geometry" />
        </mxCell>
        <mxCell id="nFYvNYG7X-C4dPKkS3No-30" style="edgeStyle=orthogonalEdgeStyle;rounded=0;orthogonalLoop=1;jettySize=auto;html=1;exitX=0.5;exitY=0;exitDx=0;exitDy=0;entryX=0.5;entryY=1;entryDx=0;entryDy=0;endArrow=block;endFill=0;" parent="1" source="nFYvNYG7X-C4dPKkS3No-28" target="nFYvNYG7X-C4dPKkS3No-12" edge="1">
          <mxGeometry relative="1" as="geometry" />
        </mxCell>
        <mxCell id="nFYvNYG7X-C4dPKkS3No-28" value="TurboCard" style="rounded=0;whiteSpace=wrap;html=1;" parent="1" vertex="1">
          <mxGeometry x="280" y="520" width="80" height="40" as="geometry" />
        </mxCell>
        <mxCell id="nFYvNYG7X-C4dPKkS3No-32" style="edgeStyle=orthogonalEdgeStyle;rounded=0;orthogonalLoop=1;jettySize=auto;html=1;exitX=0.5;exitY=0;exitDx=0;exitDy=0;endArrow=block;endFill=0;" parent="1" source="nFYvNYG7X-C4dPKkS3No-29" edge="1">
          <mxGeometry relative="1" as="geometry">
            <mxPoint x="320" y="440" as="targetPoint" />
          </mxGeometry>
        </mxCell>
        <mxCell id="nFYvNYG7X-C4dPKkS3No-29" value="ShieldCard" style="rounded=0;whiteSpace=wrap;html=1;" parent="1" vertex="1">
          <mxGeometry x="400" y="520" width="80" height="40" as="geometry" />
        </mxCell>
        <mxCell id="nFYvNYG7X-C4dPKkS3No-37" style="edgeStyle=orthogonalEdgeStyle;rounded=0;orthogonalLoop=1;jettySize=auto;html=1;exitX=0.5;exitY=0;exitDx=0;exitDy=0;entryX=0;entryY=0.5;entryDx=0;entryDy=0;endArrow=open;endFill=0;" parent="1" source="nFYvNYG7X-C4dPKkS3No-33" target="nFYvNYG7X-C4dPKkS3No-16" edge="1">
          <mxGeometry relative="1" as="geometry" />
        </mxCell>
        <mxCell id="nFYvNYG7X-C4dPKkS3No-38" value="player" style="edgeLabel;html=1;align=center;verticalAlign=middle;resizable=0;points=[];" parent="nFYvNYG7X-C4dPKkS3No-37" vertex="1" connectable="0">
          <mxGeometry x="-0.2667" relative="1" as="geometry">
            <mxPoint x="20" y="16" as="offset" />
          </mxGeometry>
        </mxCell>
        <mxCell id="nFYvNYG7X-C4dPKkS3No-39" value="1" style="edgeLabel;html=1;align=center;verticalAlign=middle;resizable=0;points=[];" parent="nFYvNYG7X-C4dPKkS3No-37" vertex="1" connectable="0">
          <mxGeometry x="0.6444" y="-1" relative="1" as="geometry">
            <mxPoint x="12" y="-11" as="offset" />
          </mxGeometry>
        </mxCell>
        <mxCell id="nFYvNYG7X-C4dPKkS3No-33" value="Dice" style="rounded=0;whiteSpace=wrap;html=1;" parent="1" vertex="1">
          <mxGeometry x="400" y="320" width="80" height="40" as="geometry" />
        </mxCell>
        <mxCell id="nFYvNYG7X-C4dPKkS3No-55" style="edgeStyle=orthogonalEdgeStyle;rounded=0;orthogonalLoop=1;jettySize=auto;html=1;exitX=0.5;exitY=0;exitDx=0;exitDy=0;entryX=0.5;entryY=1;entryDx=0;entryDy=0;endArrow=none;endFill=0;startArrow=open;startFill=0;" parent="1" source="nFYvNYG7X-C4dPKkS3No-40" target="nFYvNYG7X-C4dPKkS3No-11" edge="1">
          <mxGeometry relative="1" as="geometry" />
        </mxCell>
        <mxCell id="nFYvNYG7X-C4dPKkS3No-56" value="nodes" style="edgeLabel;html=1;align=center;verticalAlign=middle;resizable=0;points=[];" parent="nFYvNYG7X-C4dPKkS3No-55" vertex="1" connectable="0">
          <mxGeometry x="0.0625" y="-2" relative="1" as="geometry">
            <mxPoint as="offset" />
          </mxGeometry>
        </mxCell>
        <mxCell id="nFYvNYG7X-C4dPKkS3No-57" value="72" style="edgeLabel;html=1;align=center;verticalAlign=middle;resizable=0;points=[];" parent="nFYvNYG7X-C4dPKkS3No-55" vertex="1" connectable="0">
          <mxGeometry x="-0.7125" y="3" relative="1" as="geometry">
            <mxPoint as="offset" />
          </mxGeometry>
        </mxCell>
        <mxCell id="nFYvNYG7X-C4dPKkS3No-58" style="edgeStyle=orthogonalEdgeStyle;rounded=0;orthogonalLoop=1;jettySize=auto;html=1;exitX=0.75;exitY=0;exitDx=0;exitDy=0;entryX=0.5;entryY=1;entryDx=0;entryDy=0;endArrow=open;endFill=0;" parent="1" source="nFYvNYG7X-C4dPKkS3No-40" target="nFYvNYG7X-C4dPKkS3No-20" edge="1">
          <mxGeometry relative="1" as="geometry" />
        </mxCell>
        <mxCell id="nFYvNYG7X-C4dPKkS3No-59" value="piece" style="edgeLabel;html=1;align=center;verticalAlign=middle;resizable=0;points=[];" parent="nFYvNYG7X-C4dPKkS3No-58" vertex="1" connectable="0">
          <mxGeometry x="-0.2762" y="1" relative="1" as="geometry">
            <mxPoint as="offset" />
          </mxGeometry>
        </mxCell>
        <mxCell id="nFYvNYG7X-C4dPKkS3No-60" value="0...1" style="edgeLabel;html=1;align=center;verticalAlign=middle;resizable=0;points=[];" parent="nFYvNYG7X-C4dPKkS3No-58" vertex="1" connectable="0">
          <mxGeometry x="0.819" y="-1" relative="1" as="geometry">
            <mxPoint as="offset" />
          </mxGeometry>
        </mxCell>
        <mxCell id="nFYvNYG7X-C4dPKkS3No-40" value="&amp;lt;&amp;lt;abstract&amp;gt;&amp;gt;&lt;div&gt;Nodes&lt;/div&gt;" style="rounded=0;whiteSpace=wrap;html=1;" parent="1" vertex="1">
          <mxGeometry x="560" y="520" width="120" height="40" as="geometry" />
        </mxCell>
        <mxCell id="nFYvNYG7X-C4dPKkS3No-47" style="edgeStyle=orthogonalEdgeStyle;rounded=0;orthogonalLoop=1;jettySize=auto;html=1;exitX=0.5;exitY=0;exitDx=0;exitDy=0;endArrow=block;endFill=0;" parent="1" source="nFYvNYG7X-C4dPKkS3No-41" edge="1">
          <mxGeometry relative="1" as="geometry">
            <mxPoint x="620" y="560" as="targetPoint" />
          </mxGeometry>
        </mxCell>
        <mxCell id="nFYvNYG7X-C4dPKkS3No-41" value="HomeNode" style="rounded=0;whiteSpace=wrap;html=1;" parent="1" vertex="1">
          <mxGeometry x="480" y="680" width="80" height="40" as="geometry" />
        </mxCell>
        <mxCell id="nFYvNYG7X-C4dPKkS3No-48" style="edgeStyle=orthogonalEdgeStyle;rounded=0;orthogonalLoop=1;jettySize=auto;html=1;exitX=0.5;exitY=0;exitDx=0;exitDy=0;endArrow=block;endFill=0;" parent="1" source="nFYvNYG7X-C4dPKkS3No-42" edge="1">
          <mxGeometry relative="1" as="geometry">
            <mxPoint x="620" y="560" as="targetPoint" />
          </mxGeometry>
        </mxCell>
        <mxCell id="nFYvNYG7X-C4dPKkS3No-42" value="BonusNode" style="rounded=0;whiteSpace=wrap;html=1;" parent="1" vertex="1">
          <mxGeometry x="600" y="680" width="80" height="40" as="geometry" />
        </mxCell>
        <mxCell id="nFYvNYG7X-C4dPKkS3No-49" style="edgeStyle=orthogonalEdgeStyle;rounded=0;orthogonalLoop=1;jettySize=auto;html=1;exitX=0.5;exitY=0;exitDx=0;exitDy=0;endArrow=block;endFill=0;" parent="1" source="nFYvNYG7X-C4dPKkS3No-43" edge="1">
          <mxGeometry relative="1" as="geometry">
            <mxPoint x="620" y="560" as="targetPoint" />
          </mxGeometry>
        </mxCell>
        <mxCell id="nFYvNYG7X-C4dPKkS3No-43" value="StartNode" style="rounded=0;whiteSpace=wrap;html=1;" parent="1" vertex="1">
          <mxGeometry x="720" y="680" width="80" height="40" as="geometry" />
        </mxCell>
        <mxCell id="nFYvNYG7X-C4dPKkS3No-50" style="edgeStyle=orthogonalEdgeStyle;rounded=0;orthogonalLoop=1;jettySize=auto;html=1;exitX=0.5;exitY=0;exitDx=0;exitDy=0;endArrow=block;endFill=0;" parent="1" source="nFYvNYG7X-C4dPKkS3No-44" edge="1">
          <mxGeometry relative="1" as="geometry">
            <mxPoint x="620" y="560" as="targetPoint" />
          </mxGeometry>
        </mxCell>
        <mxCell id="nFYvNYG7X-C4dPKkS3No-44" value="Node" style="rounded=0;whiteSpace=wrap;html=1;" parent="1" vertex="1">
          <mxGeometry x="840" y="680" width="80" height="40" as="geometry" />
        </mxCell>
        <mxCell id="nFYvNYG7X-C4dPKkS3No-46" style="edgeStyle=orthogonalEdgeStyle;rounded=0;orthogonalLoop=1;jettySize=auto;html=1;exitX=0.5;exitY=0;exitDx=0;exitDy=0;entryX=0.5;entryY=1;entryDx=0;entryDy=0;endArrow=block;endFill=0;" parent="1" source="nFYvNYG7X-C4dPKkS3No-45" target="nFYvNYG7X-C4dPKkS3No-40" edge="1">
          <mxGeometry relative="1" as="geometry" />
        </mxCell>
        <mxCell id="nFYvNYG7X-C4dPKkS3No-45" value="WaitingNode" style="rounded=0;whiteSpace=wrap;html=1;" parent="1" vertex="1">
          <mxGeometry x="360" y="680" width="80" height="40" as="geometry" />
        </mxCell>
        <mxCell id="nFYvNYG7X-C4dPKkS3No-53" style="edgeStyle=orthogonalEdgeStyle;rounded=0;orthogonalLoop=1;jettySize=auto;html=1;exitX=0;exitY=0.5;exitDx=0;exitDy=0;entryX=1;entryY=0.5;entryDx=0;entryDy=0;endArrow=none;endFill=0;startArrow=open;startFill=0;" parent="1" source="nFYvNYG7X-C4dPKkS3No-52" target="nFYvNYG7X-C4dPKkS3No-40" edge="1">
          <mxGeometry relative="1" as="geometry" />
        </mxCell>
        <mxCell id="nFYvNYG7X-C4dPKkS3No-70" value="1" style="edgeLabel;html=1;align=center;verticalAlign=middle;resizable=0;points=[];fontColor=#FF3333;" parent="nFYvNYG7X-C4dPKkS3No-53" vertex="1" connectable="0">
          <mxGeometry x="0.5" relative="1" as="geometry">
            <mxPoint x="40" y="-10" as="offset" />
          </mxGeometry>
        </mxCell>
        <mxCell id="nFYvNYG7X-C4dPKkS3No-71" value="nextNode" style="edgeLabel;html=1;align=center;verticalAlign=middle;resizable=0;points=[];" parent="nFYvNYG7X-C4dPKkS3No-53" vertex="1" connectable="0">
          <mxGeometry x="-0.125" y="1" relative="1" as="geometry">
            <mxPoint y="9" as="offset" />
          </mxGeometry>
        </mxCell>
        <mxCell id="nFYvNYG7X-C4dPKkS3No-54" style="edgeStyle=orthogonalEdgeStyle;rounded=0;orthogonalLoop=1;jettySize=auto;html=1;exitX=0.5;exitY=1;exitDx=0;exitDy=0;entryX=0.5;entryY=1;entryDx=0;entryDy=0;endArrow=block;endFill=0;" parent="1" source="nFYvNYG7X-C4dPKkS3No-52" target="nFYvNYG7X-C4dPKkS3No-40" edge="1">
          <mxGeometry relative="1" as="geometry" />
        </mxCell>
        <mxCell id="nFYvNYG7X-C4dPKkS3No-52" value="NextNode" style="rounded=0;whiteSpace=wrap;html=1;" parent="1" vertex="1">
          <mxGeometry x="760" y="520" width="80" height="40" as="geometry" />
        </mxCell>
      </root>
    </mxGraphModel>
  </diagram>
</mxfile>
